<svg xmlns="http://www.w3.org/2000/svg" fill="none" viewBox="0 0 32 32" id="Usdc--Streamline-Cryptocurrency">
  <desc>
    Usdc Streamline Icon: https://streamlinehq.com
  </desc>
  <path fill="#3e73c4" d="M16 32c8.8366 0 16 -7.1634 16 -16 0 -8.83656 -7.1634 -16 -16 -16C7.16344 0 0 7.16344 0 16c0 8.8366 7.16344 16 16 16Z" stroke-width="1"></path>
  <path fill="#ffffff" d="M20.0221 18.124c0 -2.124 -1.28 -2.852 -3.84 -3.156 -1.828 -0.243 -2.193 -0.728 -2.193 -1.578 0 -0.85 0.61 -1.396 1.828 -1.396 1.097 0 1.707 0.364 2.011 1.275 0.0316 0.0881 0.0895 0.1644 0.1659 0.2185 0.0763 0.0542 0.1674 0.0837 0.2611 0.0845h0.975c0.0563 0.0015 0.1123 -0.0084 0.1647 -0.0292 0.0523 -0.0208 0.0999 -0.0521 0.1398 -0.0918 0.0399 -0.0397 0.0714 -0.0872 0.0924 -0.1394 0.0211 -0.0523 0.0313 -0.1083 0.0301 -0.1646v-0.06c-0.1192 -0.6591 -0.4527 -1.2604 -0.9487 -1.7105 -0.496 -0.4501 -1.1268 -0.7237 -1.7943 -0.7785V9.14201c0 -0.243 -0.183 -0.425 -0.487 -0.486h-0.915c-0.243 0 -0.426 0.182 -0.487 0.486V10.538c-1.829 0.242 -2.986 1.456 -2.986 2.974 0 2.002 1.218 2.791 3.778 3.095 1.707 0.303 2.255 0.668 2.255 1.639 0 0.97 -0.853 1.638 -2.011 1.638 -1.585 0 -2.133 -0.667 -2.316 -1.578 -0.06 -0.242 -0.244 -0.364 -0.427 -0.364h-1.036c-0.0563 -0.0014 -0.1122 0.0087 -0.1644 0.0296 -0.0523 0.0208 -0.0997 0.0521 -0.1396 0.0918 -0.0398 0.0397 -0.0711 0.0871 -0.0921 0.1393 -0.021 0.0522 -0.0312 0.1081 -0.0299 0.1643v0.06c0.243 1.518 1.219 2.61 3.23 2.914v1.457c0 0.242 0.183 0.425 0.487 0.485h0.915c0.243 0 0.426 -0.182 0.487 -0.485V21.34c1.829 -0.303 3.047 -1.578 3.047 -3.217v0.001Z" stroke-width="1"></path>
  <path fill="#ffffff" d="M12.892 24.497c-4.75396 -1.7 -7.19196 -6.98 -5.42396 -11.653 0.914 -2.55 2.92496 -4.491 5.42396 -5.402 0.244 -0.121 0.365 -0.303 0.365 -0.607v-0.85c0 -0.242 -0.121 -0.424 -0.365 -0.485 -0.061 0 -0.183 0 -0.244 0.06 -1.3715 0.42832 -2.6448 1.12373 -3.74654 2.04617 -1.10171 0.92245 -2.01006 2.05371 -2.67277 3.32863 -0.66271 1.275 -1.06668 2.6684 -1.18864 4.1001 -0.12196 1.4317 0.04049 2.8734 0.47799 4.2421 1.096 3.4 3.717 6.01 7.12996 7.102 0.244 0.121 0.488 0 0.548 -0.243 0.061 -0.06 0.061 -0.122 0.061 -0.243v-0.85c0 -0.182 -0.182 -0.424 -0.365 -0.546Zm6.46 -18.936c-0.244 -0.122 -0.488 0 -0.548 0.242 -0.061 0.061 -0.061 0.122 -0.061 0.243v0.85c0 0.243 0.182 0.485 0.365 0.607 4.754 1.7 7.192 6.98 5.424 11.653 -0.914 2.55 -2.925 4.491 -5.424 5.402 -0.244 0.121 -0.365 0.303 -0.365 0.607v0.85c0 0.242 0.121 0.424 0.365 0.485 0.061 0 0.183 0 0.244 -0.06 1.3716 -0.4283 2.6449 -1.1237 3.7466 -2.0462 1.1017 -0.9224 2.0101 -2.0537 2.6728 -3.3286 0.6627 -1.275 1.0667 -2.6684 1.1886 -4.1001 0.122 -1.4317 -0.0405 -2.8734 -0.478 -4.2421 -1.096 -3.46 -3.778 -6.07 -7.13 -7.162Z" stroke-width="1"></path>
</svg>